:FULLY-SPECIFIED
:FORCE-ALL-JOINTS-BE-3DOF
:DEGREES
136
root 7.71652 16.6958 -26.337 -7.97641 12.6254 2.10064
lfemur -8.40095 13.854 -18.7112
ltibia 33.1251 0 0
lfoot -16.0725 -6.38231 0
ltoes 20.4315 0 0
rfemur -81.1849 -26.8083 34.3148
rtibia 75.5695 0 0
rfoot 8.61233 22.0297 0
rtoes -30.3583 0 0
lowerback 14.6643 -3.14902 -6.02103
upperback 4.6137 -4.99213 -0.22949
thorax -2.7802 -2.4849 3.9199
lowerneck -12.0511 -1.93851 0.0227697
upperneck 0.776111 -2.70275 2.82328
head 2.39578 -1.24947 0.752962
lclavicle 3.19426e-14 1.39578e-14 0
lhumerus -38.7356 -22.1908 92.5817
lradius 49.0621 0 0
lwrist 11.5561 0 0
lhand 13.5504 8.40932 0
lfingers 7.12502 0 0
lthumb 38.4291 33.6245 0
rclavicle 3.19426e-14 1.39578e-14 0
rhumerus -46.0447 -13.4955 -60.7313
rradius 76.858 0 0
rwrist -8.10354 0 0
rhand -9.42758 -30.5018 0
rfingers 7.12502 0 0
rthumb 16.4413 -199.961 0
137
root 7.66307 16.6647 -26.3207 -7.62108 13.4686 2.1302
lfemur -9.15707 14.585 -18.6141
ltibia 33.7735 0 0
lfoot -16.3346 -5.70075 0
ltoes 18.4773 0 0
rfemur -81.842 -27.2818 34.4843
rtibia 80.4887 0 0
rfoot 10.1581 22.0551 0
rtoes -29.8824 0 0
lowerback 14.5532 -3.41175 -6.24013
upperback 4.52372 -5.37013 -0.378951
thorax -2.76732 -2.66971 3.9338
lowerneck -12.0045 -2.03557 -0.137278
upperneck 0.675011 -2.81716 3.07186
head 2.36375 -1.30042 0.855451
lclavicle 3.88704e-14 1.26081e-14 0
lhumerus -38.3226 -23.381 92.699
lradius 48.7441 0 0
lwrist 11.2384 0 0
lhand 14.7374 8.84173 0
lfingers 7.12502 0 0
lthumb 39.5443 33.7072 0
rclavicle 3.88704e-14 1.26081e-14 0
rhumerus -47.0063 -14.1991 -61.8307
rradius 78.5729 0 0
rwrist -7.88972 0 0
rhand -12.891 -32.7888 0
rfingers 7.12502 0 0
rthumb 13.1099 -227.926 0
138
root 7.60912 16.6332 -26.3042 -7.26248 14.3195 2.16002
lfemur -9.92013 15.3227 -18.5161
ltibia 34.4279 0 0
lfoot -16.5991 -5.01295 0
ltoes 16.5051 0 0
rfemur -82.5052 -27.7596 34.6554
rtibia 85.4529 0 0
rfoot 11.718 22.0808 0
rtoes -29.402 0 0
lowerback 14.4412 -3.67689 -6.46124
upperback 4.43292 -5.75161 -0.52978
thorax -2.75434 -2.85623 3.94783
lowerneck -11.9576 -2.13352 -0.298793
upperneck 0.572985 -2.93261 3.32273
head 2.33142 -1.35183 0.95888
lclavicle 4.58616e-14 1.1246e-14 0
lhumerus -37.9058 -24.5822 92.8173
lradius 48.4231 0 0
lwrist 10.9177 0 0
lhand 15.9353 9.27812 0
lfingers 7.12502 0 0
lthumb 40.6696 33.7908 0
rclavicle 4.58616e-14 1.1246e-14 0
rhumerus -47.9767 -14.9091 -62.9402
rradius 80.3034 0 0
rwrist -7.67394 0 0
rhand -16.3862 -35.0967 0
rfingers 7.12502 0 0
rthumb 9.74793 -256.148 0
139
root 7.55567 16.6021 -26.2879 -6.90715 15.1627 2.18958
lfemur -10.6763 16.0537 -18.419
ltibia 35.0763 0 0
lfoot -16.8612 -4.3314 0
ltoes 14.5509 0 0
rfemur -83.1623 -28.2331 34.8249
rtibia 90.3721 0 0
rfoot 13.2638 22.1062 0
rtoes -28.9261 0 0
lowerback 14.3301 -3.93962 -6.68034
upperback 4.34294 -6.12961 -0.679241
thorax -2.74146 -3.04104 3.96173
lowerneck -11.911 -2.23058 -0.458841
upperneck 0.471885 -3.04702 3.57131
head 2.29939 -1.40278 1.06137
lclavicle 5.27894e-14 9.89633e-15 0
lhumerus -37.4928 -25.7724 92.9346
lradius 48.1051 0 0
lwrist 10.6 0 0
lhand 17.1223 9.71053 0
lfingers 7.12502 0 0
lthumb 41.7848 33.8735 0
rclavicle 5.27894e-14 9.89633e-15 0
rhumerus -48.9383 -15.6127 -64.0396
rradius 82.0183 0 0
rwrist -7.46012 0 0
rhand -19.8496 -37.3837 0
rfingers 7.12502 0 0
rthumb 6.4165 -284.114 0
140
root 7.50368 16.5718 -26.2721 -6.56158 15.9827 2.21832
lfemur -11.4116 16.7646 -18.3245
ltibia 35.7069 0 0
lfoot -17.1161 -3.66857 0
ltoes 12.6504 0 0
rfemur -83.8014 -28.6936 34.9897
rtibia 95.1562 0 0
rfoot 14.7671 22.1309 0
rtoes -28.4632 0 0
lowerback 14.2221 -4.19514 -6.89341
upperback 4.25544 -6.49724 -0.824594
thorax -2.72895 -3.22078 3.97525
lowerneck -11.8658 -2.32497 -0.614491
upperneck 0.373563 -3.15829 3.81307
head 2.26824 -1.45233 1.16104
lclavicle 5.95268e-14 8.58373e-15 0
lhumerus -37.0912 -26.9299 93.0486
lradius 47.7958 0 0
lwrist 10.2911 0 0
lhand 18.2767 10.1311 0
lfingers 7.12502 0 0
lthumb 42.8693 33.954 0
rclavicle 5.95268e-14 8.58373e-15 0
rhumerus -49.8734 -16.2969 -65.1087
rradius 83.686 0 0
rwrist -7.25217 0 0
rhand -23.2179 -39.6078 0
rfingers 7.12502 0 0
rthumb 3.17663 -311.311 0
141
root 7.45414 16.543 -26.257 -6.23228 16.7641 2.24571
lfemur -12.1123 17.4421 -18.2345
ltibia 36.3078 0 0
lfoot -17.359 -3.03696 0
ltoes 10.8394 0 0
rfemur -84.4103 -29.1324 35.1468
rtibia 99.7149 0 0
rfoot 16.1996 22.1545 0
rtoes -28.0221 0 0
lowerback 14.1191 -4.43862 -7.09645
upperback 4.17206 -6.84754 -0.963101
thorax -2.71702 -3.39205 3.98813
lowerneck -11.8226 -2.41492 -0.76281
upperneck 0.279872 -3.26431 4.04343
head 2.23855 -1.49954 1.25602
lclavicle 6.59468e-14 7.33294e-15 0
lhumerus -36.7085 -28.0329 93.1573
lradius 47.5011 0 0
lwrist 9.99663 0 0
lhand 19.3767 10.5318 0
lfingers 7.12502 0 0
lthumb 43.9028 34.0307 0
rclavicle 6.59468e-14 7.33294e-15 0
rhumerus -50.7646 -16.9489 -66.1275
rradius 85.2751 0 0
rwrist -7.05402 0 0
rhand -26.4275 -41.7272 0
rfingers 7.12502 0 0
rthumb 0.089337 -337.227 0
142
root 7.40803 16.5162 -26.243 -5.92577 17.4915 2.2712
lfemur -12.7645 18.0726 -18.1507
ltibia 36.8671 0 0
lfoot -17.5851 -2.44905 0
ltoes 9.1537 0 0
rfemur -84.9772 -29.5408 35.293
rtibia 103.958 0 0
rfoot 17.533 22.1764 0
rtoes -27.6115 0 0
lowerback 14.0233 -4.66525 -7.28545
upperback 4.09445 -7.17361 -1.09202
thorax -2.70592 -3.55148 4.00012
lowerneck -11.7825 -2.49864 -0.900867
upperneck 0.192664 -3.363 4.25786
head 2.21092 -1.54349 1.34443
lclavicle 7.19227e-14 6.16869e-15 0
lhumerus -36.3523 -29.0596 93.2585
lradius 47.2268 0 0
lwrist 9.72257 0 0
lhand 20.4006 10.9048 0
lfingers 7.12502 0 0
lthumb 44.8647 34.1021 0
rclavicle 7.19227e-14 6.16869e-15 0
rhumerus -51.594 -17.5558 -67.0759
rradius 86.7543 0 0
rwrist -6.86958 0 0
rhand -29.4151 -43.7 0
rfingers 7.12502 0 0
rthumb -2.78434 -361.35 0
143
root 7.36633 16.4919 -26.2302 -5.64856 18.1493 2.29426
lfemur -13.3544 18.6429 -18.075
ltibia 37.373 0 0
lfoot -17.7896 -1.91733 0
ltoes 7.62911 0 0
rfemur -85.4898 -29.9102 35.4252
rtibia 107.796 0 0
rfoot 18.7389 22.1963 0
rtoes -27.2402 0 0
lowerback 13.9367 -4.87022 -7.45638
upperback 4.02425 -7.46852 -1.20863
thorax -2.69588 -3.69566 4.01096
lowerneck -11.7462 -2.57436 -1.02573
upperneck 0.11379 -3.45226 4.4518
head 2.18593 -1.58324 1.42438
lclavicle 7.73274e-14 5.11572e-15 0
lhumerus -36.0301 -29.9881 93.35
lradius 46.9787 0 0
lwrist 9.47471 0 0
lhand 21.3266 11.2422 0
lfingers 7.12502 0 0
lthumb 45.7347 34.1667 0
rclavicle 7.73274e-14 5.11572e-15 0
rhumerus -52.3442 -18.1047 -67.9336
rradius 88.0922 0 0
rwrist -6.70276 0 0
rhand -32.1171 -45.4842 0
rfingers 7.12502 0 0
rthumb -5.38336 -383.167 0
144
root 7.33001 16.4707 -26.2192 -5.40715 18.7222 2.31433
lfemur -13.8681 19.1396 -18.009
ltibia 37.8135 0 0
lfoot -17.9677 -1.45429 0
ltoes 6.30144 0 0
rfemur -85.9362 -30.2319 35.5404
rtibia 111.138 0 0
rfoot 19.7891 22.2135 0
rtoes -26.9169 0 0
lowerback 13.8612 -5.04872 -7.60523
upperback 3.96312 -7.72533 -1.31017
thorax -2.68713 -3.82123 4.02041
lowerneck -11.7145 -2.6403 -1.13446
upperneck 0.0451043 -3.52999 4.62068
head 2.16417 -1.61785 1.49401
lclavicle 8.20341e-14 4.19875e-15 0
lhumerus -35.7495 -30.7967 93.4296
lradius 46.7627 0 0
lwrist 9.25886 0 0
lhand 22.1331 11.5359 0
lfingers 7.12502 0 0
lthumb 46.4924 34.2229 0
rclavicle 8.20341e-14 4.19875e-15 0
rhumerus -52.9975 -18.5827 -68.6805
rradius 89.2572 0 0
rwrist -6.55749 0 0
rhand -34.4701 -47.0379 0
rfingers 7.12502 0 0
rthumb -7.64669 -402.167 0
145
root 7.30006 16.4533 -26.2101 -5.20805 19.1946 2.33089
lfemur -14.2918 19.5492 -17.9546
ltibia 38.1769 0 0
lfoot -18.1145 -1.07241 0
ltoes 5.20648 0 0
rfemur -86.3044 -30.4972 35.6353
rtibia 113.894 0 0
rfoot 20.6552 22.2278 0
rtoes -26.6502 0 0
lowerback 13.799 -5.19594 -7.72799
upperback 3.91271 -7.93713 -1.39391
thorax -2.67992 -3.92478 4.02819
lowerneck -11.6885 -2.69468 -1.22414
upperneck -0.0115425 -3.59409 4.75997
head 2.14622 -1.6464 1.55144
lclavicle 8.59157e-14 3.44251e-15 0
lhumerus -35.5181 -31.4636 93.4954
lradius 46.5845 0 0
lwrist 9.08084 0 0
lhand 22.7981 11.7782 0
lfingers 7.12502 0 0
lthumb 47.1172 34.2693 0
rclavicle 8.59157e-14 3.44251e-15 0
rhumerus -53.5363 -18.9769 -69.2965
rradius 90.218 0 0
rwrist -6.43769 0 0
rhand -36.4107 -48.3193 0
rfingers 7.12502 0 0
rthumb -9.51331 -417.836 0
146
root 7.27745 16.4401 -26.2032 -5.05778 19.5512 2.34339
lfemur -14.6116 19.8583 -17.9135
ltibia 38.4511 0 0
lfoot -18.2254 -0.784175 0
ltoes 4.38004 0 0
rfemur -86.5823 -30.6974 35.707
rtibia 115.975 0 0
rfoot 21.3089 22.2385 0
rtoes -26.4489 0 0
lowerback 13.752 -5.30705 -7.82065
upperback 3.87466 -8.09699 -1.45712
thorax -2.67448 -4.00294 4.03407
lowerneck -11.6688 -2.73573 -1.29182
upperneck -0.0542978 -3.64248 4.86509
head 2.13267 -1.66794 1.59478
lclavicle 8.88455e-14 2.87172e-15 0
lhumerus -35.3435 -31.967 93.5449
lradius 46.45 0 0
lwrist 8.94648 0 0
lhand 23.3001 11.9611 0
lfingers 7.12502 0 0
lthumb 47.5888 34.3043 0
rclavicle 8.88455e-14 2.87172e-15 0
rhumerus -53.9429 -19.2744 -69.7614
rradius 90.9432 0 0
rwrist -6.34726 0 0
rhand -37.8754 -49.2865 0
rfingers 7.12502 0 0
rthumb -10.9222 -429.663 0
147
root 7.26317 16.4318 -26.1988 -4.96284 19.7765 2.35129
lfemur -14.8136 20.0536 -17.8875
ltibia 38.6243 0 0
lfoot -18.2954 -0.602079 0
ltoes 3.85792 0 0
rfemur -86.7579 -30.8239 35.7523
rtibia 117.289 0 0
rfoot 21.7219 22.2453 0
rtoes -26.3217 0 0
lowerback 13.7223 -5.37724 -7.87919
upperback 3.85062 -8.19799 -1.49705
thorax -2.67104 -4.05232 4.03779
lowerneck -11.6563 -2.76166 -1.33458
upperneck -0.0813092 -3.67305 4.93151
head 2.12411 -1.68156 1.62217
lclavicle 9.06964e-14 2.51112e-15 0
lhumerus -35.2332 -32.285 93.5763
lradius 46.365 0 0
lwrist 8.8616 0 0
lhand 23.6173 12.0766 0
lfingers 7.12502 0 0
lthumb 47.8867 34.3264 0
rclavicle 9.06964e-14 2.51112e-15 0
rhumerus -54.1998 -19.4624 -70.0551
rradius 91.4014 0 0
rwrist -6.29013 0 0
rhand -38.8008 -49.8975 0
rfingers 7.12502 0 0
rthumb -11.8122 -437.135 0
148
root 7.25819 16.4289 -26.1973 -4.92975 19.855 2.35404
lfemur -14.884 20.1217 -17.8785
ltibia 38.6847 0 0
lfoot -18.3198 -0.538606 0
ltoes 3.67592 0 0
rfemur -86.8191 -30.868 35.7681
rtibia 117.747 0 0
rfoot 21.8659 22.2477 0
rtoes -26.2774 0 0
lowerback 13.712 -5.40171 -7.89959
upperback 3.84224 -8.23319 -1.51097
thorax -2.66984 -4.06953 4.03908
lowerneck -11.652 -2.7707 -1.34949
upperneck -0.0907246 -3.6837 4.95466
head 2.12113 -1.6863 1.63171
lclavicle 9.13416e-14 2.38542e-15 0
lhumerus -35.1947 -32.3958 93.5872
lradius 46.3354 0 0
lwrist 8.83201 0 0
lhand 23.7278 12.1169 0
lfingers 7.12502 0 0
lthumb 47.9906 34.3341 0
rclavicle 9.13416e-14 2.38542e-15 0
rhumerus -54.2894 -19.5279 -70.1575
rradius 91.5611 0 0
rwrist -6.27022 0 0
rhand -39.1233 -50.1105 0
rfingers 7.12502 0 0
rthumb -12.1225 -439.739 0
